####
#
# OBJ File Generated by Meshlab
#
####
# Object mesh2.obj
#
# Vertices: 8
# Faces: 3
#
####
vn 0.0000000 0.0000000 -1.0000000
v -0.5000000 -0.5000000 -0.5000000
vn 0.0000000 0.0000000 -1.0000000
v 0.5000000 -0.5000000 -0.5000000
vn 0.0000000 0.0000000 -1.0000000
v -0.5000000 0.5000000 -0.5000000
vn 0.0000000 0.0000000 -1.0000000
v 0.5000000 0.5000000 -0.5000000
vn 0.0000000 0.0000000 1.0000000
v -0.5000000 -0.5000000 0.5000000
vn 0.0000000 0.0000000 1.0000000
v 0.5000000 -0.5000000 0.5000000
vn 0.0000000 0.0000000 1.0000000
v -0.5000000 0.5000000 0.5000000
vn 0.0000000 0.0000000 1.0000000
v 0.5000000 0.5000000 0.5000000
# 8 vertices, 0 vertices normals

f 3//3 2//2 1//1
f 7//7 6//6 8//8
f 6//6 7//7 5//5
# 3 faces, 0 coords texture

# End of File
